<svg width="150" height="31" viewBox="0 0 150 31" fill="none" xmlns="http://www.w3.org/2000/svg">
<g id="logo_05 (1) 1">
<path id="M S RAJ" d="M74.14 8.96V23H70.72V14.58L67.58 23H64.82L61.66 14.56V23H58.24V8.96H62.28L66.22 18.68L70.12 8.96H74.14ZM85.9177 23.14C84.891 23.14 83.971 22.9733 83.1577 22.64C82.3443 22.3067 81.691 21.8133 81.1977 21.16C80.7177 20.5067 80.4643 19.72 80.4377 18.8H84.0777C84.131 19.32 84.311 19.72 84.6177 20C84.9243 20.2667 85.3243 20.4 85.8177 20.4C86.3243 20.4 86.7243 20.2867 87.0177 20.06C87.311 19.82 87.4577 19.4933 87.4577 19.08C87.4577 18.7333 87.3377 18.4467 87.0977 18.22C86.871 17.9933 86.5843 17.8067 86.2377 17.66C85.9043 17.5133 85.4243 17.3467 84.7977 17.16C83.891 16.88 83.151 16.6 82.5777 16.32C82.0043 16.04 81.511 15.6267 81.0977 15.08C80.6843 14.5333 80.4777 13.82 80.4777 12.94C80.4777 11.6333 80.951 10.6133 81.8977 9.88C82.8443 9.13333 84.0777 8.76 85.5977 8.76C87.1443 8.76 88.391 9.13333 89.3377 9.88C90.2843 10.6133 90.791 11.64 90.8577 12.96H87.1577C87.131 12.5067 86.9643 12.1533 86.6577 11.9C86.351 11.6333 85.9577 11.5 85.4777 11.5C85.0643 11.5 84.731 11.6133 84.4777 11.84C84.2243 12.0533 84.0977 12.3667 84.0977 12.78C84.0977 13.2333 84.311 13.5867 84.7377 13.84C85.1643 14.0933 85.831 14.3667 86.7377 14.66C87.6443 14.9667 88.3777 15.26 88.9377 15.54C89.511 15.82 90.0043 16.2267 90.4177 16.76C90.831 17.2933 91.0377 17.98 91.0377 18.82C91.0377 19.62 90.831 20.3467 90.4177 21C90.0177 21.6533 89.431 22.1733 88.6577 22.56C87.8843 22.9467 86.971 23.14 85.9177 23.14ZM104.541 23L101.621 17.7H100.801V23H97.3806V8.96H103.121C104.227 8.96 105.167 9.15333 105.941 9.54C106.727 9.92667 107.314 10.46 107.701 11.14C108.087 11.8067 108.281 12.5533 108.281 13.38C108.281 14.3133 108.014 15.1467 107.481 15.88C106.961 16.6133 106.187 17.1333 105.161 17.44L108.401 23H104.541ZM100.801 15.28H102.921C103.547 15.28 104.014 15.1267 104.321 14.82C104.641 14.5133 104.801 14.08 104.801 13.52C104.801 12.9867 104.641 12.5667 104.321 12.26C104.014 11.9533 103.547 11.8 102.921 11.8H100.801V15.28ZM119.168 20.52H113.928L113.088 23H109.508L114.588 8.96H118.548L123.628 23H120.008L119.168 20.52ZM118.288 17.88L116.548 12.74L114.828 17.88H118.288ZM133.974 8.96V18.52C133.974 20 133.554 21.14 132.714 21.94C131.887 22.74 130.767 23.14 129.354 23.14C127.874 23.14 126.687 22.72 125.794 21.88C124.9 21.04 124.454 19.8467 124.454 18.3H127.854C127.854 18.8867 127.974 19.3333 128.214 19.64C128.454 19.9333 128.8 20.08 129.254 20.08C129.667 20.08 129.987 19.9467 130.214 19.68C130.44 19.4133 130.554 19.0267 130.554 18.52V8.96H133.974Z" fill="black"/>
<g id="Group 1">
<g id="left 1">
<path id="Vector" d="M21.625 23.7917L14.3333 16.5L21.625 9.20837" stroke="black" stroke-width="3" stroke-linecap="round" stroke-linejoin="round"/>
</g>
<g id="left 2">
<path id="Vector_2" d="M34.375 9.20837L41.6667 16.5L34.375 23.7917" stroke="black" stroke-width="3" stroke-linecap="round" stroke-linejoin="round"/>
</g>
<line id="Line 1" x1="31.0302" y1="5.85437" x2="25.8544" y2="23.9698" stroke="black" stroke-width="3" stroke-linecap="round"/>
</g>
</g>
</svg>
